# xmcd
#
# Track frame offsets: 
#        150
#        20747
#        38251
#        53463
#        66762
#        90105
#        105803
#        124410
#        144334
#        156002
#        181552
#
# Disc length: 2738 seconds
#
# Revision: 0
# Processed by: cddbd v1.5.2PL0 Copyright (c) Steve Scherf et al.
# Submitted via: ExactAudioCopy v0.99pb3
#
DISCID=720ab00b
DTITLE=Mystr Treefrog - Bats Will Scatter
DYEAR=2006
DGENRE=Punk Blues
TTITLE0=Chikin Milk
TTITLE1=The Ark
TTITLE2=How Many Fingers
TTITLE3=Pureblood
TTITLE4=Rednex N Gangstaz
TTITLE5=Everyman
TTITLE6=N2NYC
TTITLE7=U Fit The Profile
TTITLE8=Wrong Turn
TTITLE9=Bible Belt
TTITLE10=Troubled Sleep
EXTD=
EXTT0=
EXTT1=
EXTT2=
EXTT3=
EXTT4=
EXTT5=
EXTT6=
EXTT7=
EXTT8=
EXTT9=
EXTT10=
PLAYORDER=
